<?xml version="1.0" encoding="UTF-8"?>
<svg version="1.1" xmlns="http://www.w3.org/2000/svg" width="1280" height="1280">
<path d="M0 0 C422.4 0 844.8 0 1280 0 C1280 422.4 1280 844.8 1280 1280 C857.6 1280 435.2 1280 0 1280 C0 857.6 0 435.2 0 0 Z " fill="#FEFEFE" transform="translate(0,0)"/>
<path d="M0 0 C5.03746175 4.17646701 9.57820686 8.5569603 14 13.375 C14.92280762 14.37116333 14.92280762 14.37116333 15.86425781 15.38745117 C18.87880261 18.65214075 21.85446908 21.94127471 24.75 25.3125 C28.08262128 29.19214244 31.71219321 32.74608286 35.375 36.3125 C37.34805264 38.33253009 39.17595052 40.3527503 41.00390625 42.49609375 C45.80334519 48.03031291 51.01039132 53.15979055 56.19702148 58.32739258 C57.933936 60.058947 59.66543889 61.79578359 61.39648438 63.53320312 C66.5378582 68.67766436 71.6846443 73.74544109 77.22241211 78.4675293 C80.3503111 81.16411245 83.31577652 84.03459263 86.3125 86.875 C91.5394866 91.79493773 96.85862862 96.45374682 102.46875 100.93359375 C105.00138153 103.00112782 107.4073116 105.16113341 109.8125 107.375 C115.31470549 112.37621975 121.13909602 116.92164295 127.01806641 121.46386719 C129.09566973 123.07415052 131.16377949 124.69604957 133.23046875 126.3203125 C143.99607735 134.76640445 154.93708312 142.94815463 166 151 C167.12124268 151.81766846 167.12124268 151.81766846 168.26513672 152.65185547 C173.4919102 156.46011306 178.73813478 160.24038935 184 164 C184.72606445 164.51933105 185.45212891 165.03866211 186.20019531 165.57373047 C201.00778954 176.13238776 216.16197857 186.17138727 231.31417847 196.22503662 C235.78230278 199.18972882 240.24312891 202.16507072 244.69897461 205.14819336 C253.9449046 211.33528733 263.2660787 217.40435369 272.60546875 223.44921875 C274.8635642 224.91163946 277.11962425 226.37713954 279.375 227.84375 C287.40440317 233.06016263 295.47172803 238.21251102 303.57373047 243.31542969 C308.70844587 246.54981472 313.83193157 249.80114006 318.94799805 253.06494141 C330.57753568 260.48355208 342.26207415 267.81116773 353.96777344 275.10888672 C359.97410147 278.85486232 365.97534829 282.60897267 371.97753906 286.36157227 C378.1530186 290.22200501 384.32980493 294.08030237 390.51293945 297.9284668 C392.56642964 299.21288488 394.61459634 300.5058587 396.65698242 301.80786133 C400.86647006 304.48477363 405.00986165 307.08069508 409.51171875 309.23828125 C414.68165208 311.79520587 418.25750188 314.02780584 420.36328125 319.62109375 C421.22083729 323.83442836 421.48924105 328.06665114 421.74609375 332.35253906 C422.0598434 336.85967348 422.52362475 341.34349565 423 345.8359375 C423.18736304 347.60400117 423.37470004 349.3720676 423.56201172 351.14013672 C423.65577087 352.02473572 423.74953003 352.90933472 423.84613037 353.82073975 C424.12264792 356.47740224 424.38630559 359.13500587 424.64501953 361.79345703 C424.72727783 362.63276764 424.80953613 363.47207825 424.89428711 364.33682251 C425.04957392 365.92821429 425.20268187 367.51982068 425.35327148 369.11166382 C425.69460182 375.95946132 425.69460182 375.95946132 429.52734375 381.0859375 C430.65765742 381.85841489 431.7949743 382.6207021 432.9375 383.375 C438.73992201 387.3566985 444.34292606 391.52556318 449.875 395.875 C455.4786075 400.26711252 461.10532249 404.61818526 466.8125 408.875 C473.07204714 413.54401941 479.29320212 418.26107495 485.5 423 C491.64764838 427.69248253 497.80536026 432.36971137 504 437 C514.63364283 444.95114802 525.17349816 453.02574224 535.72753906 461.08203125 C548.03254042 470.48816447 548.03254042 470.48816447 560.39526367 479.81811523 C561.70366002 480.80574553 563.00231236 481.80643351 564.2902832 482.82055664 C567.524285 485.33412697 570.57539241 487.34618246 574.3203125 489.0234375 C578.93118824 491.28395052 582.55495661 493.33399492 585 498 C586.27340665 503.54928407 586.55930598 508.94684188 586.625 514.625 C586.6468335 515.35745941 586.66866699 516.08991882 586.69116211 516.84457397 C586.80942161 523.11416455 586.81647909 528.76837518 582.69580078 533.83081055 C579.90533264 536.13778649 577.07178772 538.08836115 574 540 C572.71056559 540.96623653 571.43018948 541.94482379 570.1640625 542.94140625 C568.98606958 543.8173876 567.80634779 544.69104831 566.625 545.5625 C560.27470631 550.28481071 553.97287786 555.06667154 547.6875 559.875 C537.87611553 567.36687666 527.97320969 574.72525112 518 582 C517.21431641 582.57411621 516.42863281 583.14823242 515.61914062 583.73974609 C506.54789472 590.36116126 497.47611489 596.96409982 488 603 C487.42717285 603.36577148 486.8543457 603.73154297 486.26416016 604.10839844 C464.04428488 618.18983865 464.04428488 618.18983865 453.125 618.25 C449.64994826 618.38757536 448.40976246 618.63150337 445.7890625 620.98828125 C443.73108935 623.58637379 441.86005534 626.25761072 440 629 C417.80370717 656.59804551 377.54369756 680.41814458 343 687 C342.3493457 687.12713379 341.69869141 687.25426758 341.02832031 687.38525391 C328.65200172 689.78221502 316.63400866 691.21993439 304 691 C308.37569251 687.35358958 313.01376703 684.36958603 317.828125 681.35546875 C338.82758547 668.07102745 352.20943137 642.11632227 357.59375 618.3828125 C358.2117108 613.23710047 358.14368019 608.11502711 358.125 602.9375 C358.12886719 601.86177734 358.13273437 600.78605469 358.13671875 599.67773438 C358.13542969 598.63810547 358.13414062 597.59847656 358.1328125 596.52734375 C358.13168457 595.58624756 358.13055664 594.64515137 358.12939453 593.67553711 C358.00109965 591.02273786 357.59013202 588.58585655 357 586 C355.27330078 585.67128906 355.27330078 585.67128906 353.51171875 585.3359375 C336.4556416 581.98444096 320.61746445 577.08253953 304.85546875 569.734375 C298.38760268 566.789375 293.13213069 565.67959704 286.0625 565.75 C285.28970703 565.74226562 284.51691406 565.73453125 283.72070312 565.7265625 C274.26537647 565.75853317 268.43088549 568.70497713 261.0625 574.375 C260.228396 575.00349854 259.39429199 575.63199707 258.53491211 576.27954102 C256.82733034 577.56733482 255.12296175 578.85940056 253.421875 580.15576172 C250.61824695 582.29070187 247.79710345 584.40127618 244.97338867 586.50952148 C243.027617 587.96356754 241.08555349 589.42243347 239.14453125 590.8828125 C235.35891253 593.7309441 231.56955779 596.57406547 227.77929688 599.41601562 C226.08643169 600.68533771 224.39372456 601.95487062 222.70117188 603.22460938 C218.47582267 606.3944258 214.24916258 609.56246169 210.01953125 612.7265625 C201.46119822 619.13203079 192.93006185 625.5700292 184.4375 632.0625 C160.71164909 650.19223394 160.71164909 650.19223394 152 656 C150.72633207 665.57305254 152.50582123 675.54317236 154 685 C154.18599934 686.36443336 154.37087467 687.72902036 154.5546875 689.09375 C157.77725513 711.46936307 168.36861752 729.38730465 182 747 C183.69081481 749.31748044 185.34771436 751.65482038 187 754 C207.1019166 747.14443307 223.06319935 728.57595668 232.15234375 710.23999023 C235.43749541 703.35485989 237.82242002 696.31382842 240 689 C240.50273438 687.37771484 240.50273438 687.37771484 241.015625 685.72265625 C243.51989046 677.36516714 245.43502176 668.90586256 247.25 660.37475586 C247.44851563 659.46346924 247.64703125 658.55218262 247.8515625 657.61328125 C248.02510254 656.79641846 248.19864258 655.97955566 248.37744141 655.13793945 C249 653 249 653 251 650 C254.0150174 657.22724753 256.57676857 664.53536027 258.9375 672 C259.28377441 673.09070801 259.63004883 674.18141602 259.98681641 675.30517578 C262.03435355 681.80446113 264.02706301 688.31600414 265.875 694.875 C266.06570068 695.54402344 266.25640137 696.21304688 266.45288086 696.90234375 C275.84147185 731.10758609 267.83435327 762.04004507 253 793 C252.70717133 793.61442963 252.41434265 794.22885925 252.11264038 794.86190796 C248.64012929 802.11346019 244.93966451 808.96672137 240.3828125 815.59765625 C238.66664589 818.28352272 238.66664589 818.28352272 238 823 C242.29 823.33 246.58 823.66 251 824 C251.15335344 841.99347019 250.70905738 859.94589008 250.07287598 877.92523193 C249.94920432 881.44614522 249.83030978 884.96722005 249.7109375 888.48828125 C249.47846665 895.32568005 249.24097229 902.16289564 249 909 C248.39083237 909.30245636 247.78166473 909.60491272 247.15403748 909.91653442 C231.48799681 917.66407817 231.48799681 917.66407817 216.0625 925.875 C214.72747437 926.60988647 214.72747437 926.60988647 213.36547852 927.35961914 C210.57366002 928.90049617 207.78644871 930.44943696 205 932 C204.05479492 932.52352051 203.10958984 933.04704102 202.13574219 933.58642578 C182.23466564 944.62504181 163.02654171 956.65511572 143.85546875 968.90625 C143.0361084 969.42574219 142.21674805 969.94523437 141.37255859 970.48046875 C139.80172191 971.48652838 138.2417998 972.50985472 136.69384766 973.55078125 C135.98663574 974.01871094 135.27942383 974.48664062 134.55078125 974.96875 C133.93501221 975.38576172 133.31924316 975.80277344 132.68481445 976.23242188 C131 977 131 977 128 976 C126.37890625 973.875 126.37890625 973.875 124.5625 971 C112.20511556 951.94337418 98.75669235 934.36116904 83 918 C82.2471875 917.2059375 81.494375 916.411875 80.71875 915.59375 C54.62261244 888.64200138 18.69031033 870.11086669 -13.99658203 852.61279297 C-18.98950112 849.93166604 -23.96348248 847.21598625 -28.9375 844.5 C-29.81857422 844.01974365 -30.69964844 843.5394873 -31.60742188 843.04467773 C-33.27161159 842.13674921 -34.93365804 841.22487824 -36.59326172 840.30859375 C-38.22270196 839.42263314 -39.86568055 838.56120513 -41.52001953 837.72265625 C-46.05638371 835.37351666 -48.86018913 833.82134602 -51 829 C-51.76343188 827.50929148 -52.52932072 826.01984013 -53.296875 824.53125 C-54.11754165 822.85561231 -54.93517578 821.17848649 -55.75 819.5 C-56.17410156 818.65824219 -56.59820312 817.81648437 -57.03515625 816.94921875 C-57.43089844 816.13066406 -57.82664062 815.31210937 -58.234375 814.46875 C-58.59756836 813.73076172 -58.96076172 812.99277344 -59.33496094 812.23242188 C-60.23136613 809.22334365 -60.13890096 807.95841785 -59 805 C-57.01153161 802.4983595 -54.74218745 800.32564229 -52.4375 798.1171875 C-51.77218262 797.46227325 -51.10686523 796.80735901 -50.42138672 796.13259888 C-48.29020765 794.03699964 -46.14621691 791.95518688 -44 789.875 C-35.14701101 781.25525127 -26.59182396 772.7718568 -19 763 C-17.60932858 761.3290238 -16.21402101 759.66188668 -14.8125 758 C-6.2505105 747.52698648 2.00137166 736.59933355 9.09375 725.07421875 C11.84916341 720.63054999 14.70989586 716.25671175 17.5625 711.875 C18.10527588 711.03912354 18.64805176 710.20324707 19.20727539 709.34204102 C22.76611122 703.86852883 26.36663996 698.42431498 30 693 C40.06369783 723.19109349 17.0790146 769.49688858 4.37109375 795.15234375 C3.93724365 796.01851318 3.50339355 796.88468262 3.05639648 797.77709961 C1.90349056 800.08688399 1.90349056 800.08688399 1 803 C1.98097656 803.60585938 2.96195312 804.21171875 3.97265625 804.8359375 C19.35492628 814.37029114 34.30152281 824.44269756 49 835 C49.78487793 835.56267578 50.56975586 836.12535156 51.37841797 836.70507812 C61.41196023 843.92229357 71.08275821 851.36452952 80.34375 859.54980469 C82.00460156 861.00402908 83.68506736 862.43127925 85.375 863.8515625 C98.31058475 874.73789092 110.57114865 886.36006092 122.38671875 898.44921875 C125.14797007 901.14443117 128.02312409 903.54725079 131 906 C132.66666667 907.66666667 134.33333333 909.33333333 136 911 C136.66 911.33 137.32 911.66 138 912 C140.53880303 911.08259598 140.53880303 911.08259598 143.45703125 909.6328125 C145.19484863 908.81031006 145.19484863 908.81031006 146.96777344 907.97119141 C147.59292847 907.67094055 148.2180835 907.3706897 148.86218262 907.06134033 C151.5120411 905.78915284 154.17027659 904.53495558 156.82815552 903.27963257 C158.25668633 902.60473856 159.68479661 901.92895383 161.11251831 901.25234985 C169.30204601 897.37344175 177.52421856 893.56583947 185.75497437 889.77532959 C188.23383685 888.63245201 190.71032038 887.48452556 193.18676758 886.33642578 C194.71291729 885.63284274 196.23919667 884.92954087 197.765625 884.2265625 C198.46948837 883.89910034 199.17335175 883.57163818 199.89854431 883.23425293 C204.77168315 881 204.77168315 881 207 881 C206.3946951 850.91634659 195.42620224 829.11932905 175.60473633 806.81298828 C173.54734727 804.48860502 171.58131172 802.09728627 169.625 799.6875 C167.3668464 796.90676694 165.10776145 794.12912131 162.8125 791.37890625 C130.91719155 753.0475802 116.31265829 714.66184129 115.15551758 664.6184082 C115.09342567 662.49506036 115.0044711 660.3723309 114.88891602 658.2512207 C113.97815571 641.12390386 113.97815571 641.12390386 117.27651978 636.02767944 C120.46733548 632.62592099 124.19978555 630.26602779 128.25112915 628.00595093 C130.64010868 626.63180934 132.71910546 624.95915422 134.84765625 623.21484375 C136.25224642 622.1219359 137.65718921 621.02948108 139.0625 619.9375 C139.82071045 619.34807617 140.5789209 618.75865234 141.36010742 618.15136719 C147.88983329 613.07874458 154.44115908 608.03489971 161 603 C162.45986328 601.87464844 162.45986328 601.87464844 163.94921875 600.7265625 C169.84578134 596.18145279 175.75927223 591.65966135 181.6862793 587.15429688 C189.65145393 581.09824787 197.58528203 575.01030079 205.4375 568.80859375 C209.83941517 565.33266016 214.26275239 561.88429356 218.6875 558.4375 C219.46697998 557.82890137 220.24645996 557.22030273 221.04956055 556.59326172 C221.77957275 556.02494629 222.50958496 555.45663086 223.26171875 554.87109375 C223.91100342 554.36505615 224.56028809 553.85901855 225.22924805 553.33764648 C226.77784744 552.16781661 228.38516592 551.07655605 230 550 C229.12827148 549.95210831 228.25654297 549.90421661 227.35839844 549.85487366 C219.11969264 549.40175423 210.88114001 548.94596049 202.64274597 548.48720646 C198.40790591 548.2514833 194.17301489 548.01677326 189.93798828 547.78442383 C185.84650165 547.55991139 181.75517415 547.33267854 177.66394043 547.10360527 C176.10759787 547.01693434 174.55120155 546.93122291 172.99475098 546.84651375 C170.80494184 546.72716547 168.61535345 546.60432226 166.42578125 546.48071289 C165.18223877 546.41187393 163.93869629 546.34303497 162.6574707 546.27210999 C158.74314809 545.98089063 154.89027972 545.51705761 151 545 C154.7129486 541.74230245 158.92677796 540.31970508 163.48828125 538.62890625 C164.3311821 538.31041718 165.17408295 537.9919281 166.04252625 537.66378784 C168.79704586 536.6242461 171.55477205 535.59349663 174.3125 534.5625 C177.1805924 533.48192844 180.04779912 532.39902828 182.91500854 531.31611633 C184.84206782 530.58853484 186.7694169 529.86172045 188.697052 529.13566589 C197.15012642 525.95087159 205.57973454 522.70788886 214 519.4375 C215.2693527 518.94519039 216.53872093 518.45292085 217.80810547 517.96069336 C222.98711409 515.95096518 228.1643663 513.93677201 233.33984375 511.91796875 C245.25474619 507.2703726 257.18522636 502.68398283 269.25 498.4375 C273.46969476 496.94064882 277.62461122 495.36469005 281.75 493.625 C282.7090625 493.22667969 283.668125 492.82835937 284.65625 492.41796875 C286.49256303 491.63925189 288.32601196 490.85310162 290.14453125 490.03369141 C292.50165463 488.97348108 294.87400471 487.95460465 297.25 486.9375 C298.36713379 486.41567139 298.36713379 486.41567139 299.50683594 485.88330078 C302.51677949 484.62458495 304.78180948 483.6893245 308.01416016 484.51367188 C310.13490946 485.5334743 312.03935058 486.69912993 314 488 C315.04800781 488.64618286 315.04800781 488.64618286 316.1171875 489.30541992 C318.38931322 490.71662301 320.63202968 492.16796159 322.875 493.625 C344.75671101 507.60712227 367.40136293 518.66345873 392 527 C392.88526367 527.30147949 393.77052734 527.60295898 394.68261719 527.91357422 C407.09161932 532.09938594 419.62186298 535.5786963 432.3425293 538.69165039 C433.44121338 538.96485107 434.53989746 539.23805176 435.671875 539.51953125 C437.14285645 539.87688354 437.14285645 539.87688354 438.64355469 540.24145508 C441 541 441 541 443 543 C425.45877811 556.8727452 405.65238545 559.89180669 384 562 C403.82111267 566.79275779 422.71403699 568.55670195 443 566 C440.03011805 569.27466697 437.14801745 571.18287206 433.1875 573.125 C432.19105469 573.62257813 431.19460938 574.12015625 430.16796875 574.6328125 C424.07836894 577.26087653 418.09483443 578.39586478 411.5625 579.125 C410.83095703 579.21136719 410.09941406 579.29773438 409.34570312 579.38671875 C407.56439906 579.59628393 405.78227719 579.79887868 404 580 C407.56173198 580.98197493 411.12451465 581.96008343 414.6875 582.9375 C415.69490234 583.21529297 416.70230469 583.49308594 417.74023438 583.77929688 C419.20493164 584.18051758 419.20493164 584.18051758 420.69921875 584.58984375 C421.59471436 584.83597412 422.49020996 585.08210449 423.4128418 585.33569336 C428.77339933 586.71212792 433.78234049 587.18263618 439.3125 587.1875 C440.03373047 587.19974609 440.75496094 587.21199219 441.49804688 587.22460938 C456.31349794 587.26447158 469.22820638 579.69152778 480 570 C480.61649414 569.44763672 481.23298828 568.89527344 481.86816406 568.32617188 C483.94351534 566.45786041 486.00573064 564.57624135 488.0625 562.6875 C488.73079834 562.07640381 489.39909668 561.46530762 490.08764648 560.83569336 C490.70969971 560.25440674 491.33175293 559.67312012 491.97265625 559.07421875 C492.53218994 558.55432373 493.09172363 558.03442871 493.66821289 557.4987793 C495.24441036 555.92303772 495.24441036 555.92303772 496 553 C495.29835054 550.11093059 495.29835054 550.11093059 494.12890625 546.90625 C493.51499023 545.11380859 493.51499023 545.11380859 492.88867188 543.28515625 C492.44723928 542.0232188 492.00517494 540.76150218 491.5625 539.5 C490.70382729 537.03317541 489.85265085 534.56403648 489.00390625 532.09375 C488.62049072 530.99740234 488.2370752 529.90105469 487.84204102 528.77148438 C487 526 487 526 487 523 C489.61448779 521.26739546 492.19034276 519.74777719 494.9375 518.25 C496.66543292 517.28239113 498.39191803 516.31219368 500.1171875 515.33984375 C501.05530273 514.81245605 501.99341797 514.28506836 502.95996094 513.74169922 C506.25437682 511.85426243 509.51099246 509.90907325 512.7578125 507.94140625 C513.32357498 507.59884796 513.88933746 507.25628967 514.47224426 506.90335083 C517.2832911 505.19931616 520.09089586 503.48977415 522.89624023 501.77636719 C524.43453491 500.8448584 524.43453491 500.8448584 526.00390625 499.89453125 C527.37784546 499.05692261 527.37784546 499.05692261 528.77954102 498.20239258 C531 497 531 497 533 497 C526.19134701 489.73743681 517.9871939 483.96650401 510.10839844 477.9296875 C505.96575555 474.75309634 501.85179454 471.54163124 497.75 468.3125 C497.15678955 467.84553711 496.5635791 467.37857422 495.95239258 466.89746094 C494.81281616 466.00033741 493.6732487 465.10320251 492.53369141 464.20605469 C487.53482407 460.27507655 482.50454188 456.38559834 477.45947266 452.51416016 C469.33160699 446.2754871 461.27640941 439.94704305 453.22949219 433.60449219 C451.46596364 432.21489791 449.70193653 430.82594117 447.9375 429.4375 C447.35677734 428.98052734 446.77605469 428.52355469 446.17773438 428.05273438 C442.32700179 425.02808073 438.45150686 422.03770626 434.5625 419.0625 C429.18258358 414.94515832 423.88100919 410.73606921 418.61474609 406.47436523 C415.53305329 403.98888336 412.43069289 401.55809477 409.23046875 399.2265625 C408.63363281 398.78699219 408.03679687 398.34742188 407.421875 397.89453125 C405.79324895 396.70240632 404.15285861 395.52640063 402.51171875 394.3515625 C397.22147319 389.39864209 397.13065792 381.61344691 396 374.75 C395.66793819 372.76541183 395.33461449 370.78103437 395 368.796875 C394.83677246 367.82733887 394.67354492 366.85780273 394.50537109 365.85888672 C394.02137174 363.12090006 393.47904517 360.40197002 392.9140625 357.6796875 C392.1459369 353.9127154 391.64294235 350.21550698 391.375 346.375 C391.30023437 345.35148437 391.22546875 344.32796875 391.1484375 343.2734375 C391.09945313 342.52320313 391.05046875 341.77296875 391 341 C390.2685376 340.72486572 389.5370752 340.44973145 388.78344727 340.16625977 C386.16077595 339.06736486 383.88203851 337.82945958 381.46484375 336.33984375 C380.58763672 335.80230469 379.71042969 335.26476562 378.80664062 334.7109375 C377.85982422 334.12570312 376.91300781 333.54046875 375.9375 332.9375 C373.863463 331.66506829 371.78923577 330.39294661 369.71484375 329.12109375 C368.62155762 328.44933105 367.52827148 327.77756836 366.40185547 327.08544922 C361.20342485 323.89864038 355.98945737 320.73759394 350.77536011 317.57650757 C347.8104774 315.77872093 344.84664383 313.97920674 341.8828125 312.1796875 C341.01283882 311.65150673 341.01283882 311.65150673 340.12528992 311.11265564 C323.20221953 300.83724966 306.2973825 290.53199358 289.4140625 280.19140625 C282.52274165 275.97266227 275.62599354 271.76577491 268.6875 267.625 C262.85809503 264.14328948 257.07998807 260.58322159 251.3125 257 C239.96871767 249.95451724 228.55184927 243.03141417 217.13145447 236.11123657 C211.58287673 232.74862879 206.04084023 229.37533664 200.5 226 C192.00443094 220.82602366 183.50339831 215.66109377 175 210.5 C161.73536189 202.44890847 148.48006265 194.38253904 135.22753906 186.31152344 C132.42261697 184.60336625 129.61756798 182.89541761 126.8125 181.1875 C125.88493896 180.62256836 124.95737793 180.05763672 124.00170898 179.47558594 C118.57659903 176.17266355 113.14751938 172.87639353 107.71484375 169.5859375 C105.83870357 168.44899585 103.96260784 167.31198089 102.08651733 166.17495728 C100.8846644 165.44694343 99.68254662 164.71936658 98.48013306 163.99227905 C76.60851181 150.76665203 76.60851181 150.76665203 69.8515625 145.06640625 C67.3231416 143.61016383 65.86462925 143.4498093 63 144 C53.97327146 154.95955879 55.8501765 177.66581341 55 191 C51.98095333 188.15065207 50.20518396 184.96825768 48.3125 181.3125 C47.96147217 180.6424292 47.61044434 179.9723584 47.2487793 179.28198242 C46.15845601 177.19172913 45.07812163 175.09656864 44 173 C43.68933594 172.40058594 43.37867188 171.80117188 43.05859375 171.18359375 C32.38501081 150.52951766 22.6228789 129.43921842 14.88867188 107.50488281 C14.12217282 105.34436625 13.32728232 103.19849706 12.515625 101.0546875 C5.18438292 80.8258899 2.17951724 58.37720703 0.875 37 C0.81146332 35.99850418 0.81146332 35.99850418 0.74664307 34.97677612 C0.0118223 23.31162685 -0.23452096 11.68696105 0 0 Z " fill="#020202" transform="translate(454,147)"/>
<path d="M0 0 C12.16378875 2.11793028 26.46744681 16.3346049 33.8125 25.8125 C55.74990379 57.03111309 62.23888034 96.50672825 69.15454102 133.34082031 C80.15113844 195.00418282 80.15113844 195.00418282 113.50244141 246.42285156 C115.4799216 248.50542771 117.25722682 250.71933386 119 253 C116.13671265 251.66144882 113.72290799 250.14374242 111.234375 248.19921875 C110.51725342 247.64089355 109.80013184 247.08256836 109.0612793 246.50732422 C108.29855713 245.90678223 107.53583496 245.30624023 106.75 244.6875 C105.95440674 244.06375488 105.15881348 243.44000977 104.33911133 242.79736328 C101.88819684 240.87058502 99.44308432 238.93669415 97 237 C96.27538574 236.42685059 95.55077148 235.85370117 94.80419922 235.26318359 C82.81275647 225.7490569 70.5886057 216.02346512 61 204 C60.20980469 203.01257813 59.41960937 202.02515625 58.60546875 201.0078125 C48.71969219 188.49679852 41.76578273 175.85650017 36 161 C35.67290039 160.16911865 35.34580078 159.3382373 35.00878906 158.48217773 C32.341455 151.46843706 30.42755601 144.34261251 28.62304688 137.06399536 C27.76901157 133.63189332 26.88785119 130.20676035 26.0078125 126.78125 C25.83461487 126.10659195 25.66141724 125.4319339 25.48297119 124.73683167 C19.34067249 96.9315876 19.34067249 96.9315876 2.4296875 75.35546875 C1.58664062 74.97003906 0.74359375 74.58460938 -0.125 74.1875 C-0.97320312 73.78917969 -1.82140625 73.39085937 -2.6953125 72.98046875 C-20.03746853 65.60270407 -43.84382811 75.33265086 -60.26611328 81.90722656 C-63.36254666 83.19961359 -66.42539363 84.54558216 -69.48046875 85.93359375 C-72 87 -72 87 -74 87 C-72.4020683 83.13757081 -69.77849763 80.41783811 -66.9375 77.4375 C-63.31013008 73.56324103 -59.82453427 69.64214125 -56.5 65.5 C-52.8643595 60.98141824 -49.03163598 56.72016671 -45.08374023 52.47827148 C-42.11284372 49.2670095 -39.30038923 45.97372185 -36.5625 42.5625 C-33.19653536 38.37762447 -29.66822171 34.41687569 -26 30.5 C-21.53157253 25.72829513 -17.33346251 20.81769775 -13.2421875 15.71484375 C-9.9631612 11.74459414 -6.47410171 7.98526064 -2.96875 4.21484375 C-0.97328212 2.16320879 -0.97328212 2.16320879 0 0 Z " fill="#020202" transform="translate(433,477)"/>
<path d="M0 0 C5.25590061 3.34096008 10.27571893 6.92288847 15.1875 10.75 C19.59954636 14.18466581 24.06042102 17.52068736 28.625 20.75 C34.21558669 24.70608752 39.74325519 28.74052883 45.25 32.8125 C54.45217411 39.60902727 63.69305373 46.34756369 73 53 C73.7101123 53.50869629 74.42022461 54.01739258 75.15185547 54.54150391 C86.21730085 62.44539347 97.46895092 70.07911635 108.75787354 77.6590271 C110.30644525 78.69983994 111.85350724 79.74290344 113.39886475 80.78848267 C136.92227345 98.5610906 136.92227345 98.5610906 164 105 C166.94312048 100.58531929 166.61617549 97.20124609 166 92 C164.76813008 86.27989291 163.14504154 80.66015241 161.55126953 75.03271484 C160.92047008 72.70674664 160.41879142 70.37315138 160 68 C162.35834645 70.19205279 164.01027738 72.42289037 165.671875 75.17578125 C166.16840576 75.99755859 166.66493652 76.81933594 167.17651367 77.66601562 C167.9553894 78.97602539 167.9553894 78.97602539 168.75 80.3125 C169.28278564 81.20517578 169.81557129 82.09785156 170.36450195 83.01757812 C184.31979399 106.62738145 184.31979399 106.62738145 183 120 C181.24630211 124.1936254 179.20413956 126.161287 175.25 128.1875 C163.51772983 132.63368821 151.36764232 133.43254692 138.97060394 133.22549438 C136.59679681 133.18625908 134.22350763 133.16742776 131.84942627 133.15307617 C126.81604674 133.11926463 121.7831073 133.06150584 116.75 133 C110.89235529 132.92863698 105.03495989 132.86770648 99.17697906 132.83218384 C96.86151139 132.81303455 94.54684248 132.77554668 92.23162842 132.73706055 C83.73089456 132.64871975 76.18796897 133.57449273 68 136 C66.33694678 136.35091718 64.67111674 136.68974572 63 137 C62.82460693 136.32235596 62.64921387 135.64471191 62.46850586 134.9465332 C50.17782636 87.72277241 30.58928734 46.46612652 2.80957031 6.27783203 C0 2.19890721 0 2.19890721 0 0 Z " fill="#030303" transform="translate(658,453)"/>
<path d="M0 0 C1.36938477 1.56616211 1.36938477 1.56616211 2.94140625 3.77734375 C3.52092041 4.59243408 4.10043457 5.40752441 4.69750977 6.24731445 C5.62067993 7.5789563 5.62067993 7.5789563 6.5625 8.9375 C7.5059729 10.29717896 7.5059729 10.29717896 8.46850586 11.68432617 C23.76169402 34.08260931 31.41359488 58.10846878 34.0625 85 C34.22873478 86.5930627 34.3954126 88.18607923 34.5625 89.77905273 C35.71428302 100.99508661 36.5477225 112.2248553 37.32119751 123.47229004 C39.00806716 147.90901105 41.03619899 169.38434908 57 189 C56.34 189.33 55.68 189.66 55 190 C27.89508731 176.92226246 16.29398571 156.55904999 6.60742188 128.88769531 C4.49788528 122.71043196 2.67610049 116.47791671 0.9375 110.1875 C-5.99701971 84.90753002 -5.99701971 84.90753002 -23 66 C-29.92904933 62.66004251 -36.38474973 62.46515393 -44 62.3125 C-45.73443359 62.26125977 -45.73443359 62.26125977 -47.50390625 62.20898438 C-50.33584046 62.12706892 -53.16748701 62.05773478 -56 62 C-52.06501572 56.52504462 -47.85788326 51.54389769 -43.1875 46.6875 C-38.32693431 41.56279384 -33.74721082 36.33216552 -29.33984375 30.80859375 C-25.99328278 26.79160321 -22.40275606 23.01962347 -18.81860352 19.21533203 C-14.59308269 14.70486757 -10.65099929 10.04757835 -6.8046875 5.20703125 C-2.54690265 0 -2.54690265 0 0 0 Z " fill="#030303" transform="translate(545,436)"/>
<path d="M0 0 C5.66666667 5.66666667 11.33333333 11.33333333 17 17 C13.55757117 17 13.06582594 16.54402489 10.49609375 14.4453125 C9.83802734 13.91292969 9.17996094 13.38054688 8.50195312 12.83203125 C7.82068359 12.26871094 7.13941406 11.70539062 6.4375 11.125 C5.75236328 10.56941406 5.06722656 10.01382813 4.36132812 9.44140625 C1.81189786 7.364834 -0.67357915 5.32642085 -3 3 C-2.01 2.01 -1.02 1.02 0 0 Z " fill="#212121" transform="translate(535,712)"/>
<path d="M0 0 C0.66 0.99 1.32 1.98 2 3 C1.443125 3.20625 0.88625 3.4125 0.3125 3.625 C-2.30197416 5.17955221 -3.88644992 7.09998937 -5.76171875 9.46875 C-7.37011646 11.45768345 -9.15913551 13.22731568 -11 15 C-10.582687 10.07215495 -8.45014073 8.0222855 -4.9375 4.6875 C-4.01839844 3.80449219 -3.09929687 2.92148437 -2.15234375 2.01171875 C-1.44207031 1.34785156 -0.73179687 0.68398438 0 0 Z " fill="#131313" transform="translate(405,942)"/>
<path d="M0 0 C0.99 0.495 0.99 0.495 2 1 C1.01 1.495 1.01 1.495 0 2 C0 1.34 0 0.68 0 0 Z M-1 2 C-1 5.59857954 -1.95830515 7.09451118 -4 10 C-4.66 10 -5.32 10 -6 10 C-6 10.66 -6 11.32 -6 12 C-7.62626404 13.38232443 -9.2925002 14.71937515 -11 16 C-11.66 15.67 -12.32 15.34 -13 15 C-12.46890625 14.48050781 -11.9378125 13.96101562 -11.390625 13.42578125 C-7.68949647 9.77192991 -4.12841559 6.17122079 -1 2 Z " fill="#E1E1E1" transform="translate(901,766)"/>
<path d="M0 0 C0 3.69418201 -1.28179295 5.77836178 -3 9 C-3.66 9 -4.32 9 -5 9 C-5.33 9.66 -5.66 10.32 -6 11 C-6.99 10.34 -7.98 9.68 -9 9 C-6.03 6.03 -3.06 3.06 0 0 Z " fill="#1A1A1A" transform="translate(415,932)"/>
<path d="M0 0 C1.48285242 0.95262034 2.96118201 1.91228405 4.4375 2.875 C5.67306641 3.67550781 5.67306641 3.67550781 6.93359375 4.4921875 C9 6 9 6 10 8 C8.35 8.66 6.7 9.32 5 10 C4.16121545 8.71186658 3.32913217 7.41936744 2.5 6.125 C2.0359375 5.40570313 1.571875 4.68640625 1.09375 3.9453125 C0 2 0 2 0 0 Z " fill="#1C1C1C" transform="translate(658,453)"/>
<path d="M0 0 C2.40575607 2.18517099 3.79535581 4.25919671 5.1875 7.1875 C5.53167969 7.90292969 5.87585938 8.61835937 6.23046875 9.35546875 C6.48441406 9.89816406 6.73835937 10.44085937 7 11 C5.02 11.99 5.02 11.99 3 13 C2.49487756 11.39743892 1.99608373 9.79288208 1.5 8.1875 C1.2215625 7.29417969 0.943125 6.40085937 0.65625 5.48046875 C0 3 0 3 0 0 Z " fill="#2F2F2F" transform="translate(818,521)"/>
<path d="M0 0 C2.5 2.3125 2.5 2.3125 5 5 C5 5.99 5 6.98 5 8 C3.02 7.34 1.04 6.68 -1 6 C-1 2 -1 2 0 0 Z " fill="#EEEEEE" transform="translate(620,942)"/>
<path d="M0 0 C2.625 0.25 2.625 0.25 4.4375 1.75 C4.829375 2.245 5.22125 2.74 5.625 3.25 C2.86235711 3.84732819 0.46467231 4.25 -2.375 4.25 C-3.365 4.58 -4.355 4.91 -5.375 5.25 C-2.9868068 0.31440072 -2.9868068 0.31440072 0 0 Z " fill="#E8E8E8" transform="translate(519.375,289.75)"/>
<path d="M0 0 C0.66 0.99 1.32 1.98 2 3 C1.34 3.66 0.68 4.32 0 5 C-0.66 5 -1.32 5 -2 5 C-2.99 5.66 -3.98 6.32 -5 7 C-5 6.01 -5 5.02 -5 4 C-2.5 1.8125 -2.5 1.8125 0 0 Z M-8 6 C-7.34 6 -6.68 6 -6 6 C-6.33 6.99 -6.66 7.98 -7 9 C-7.66 8.34 -8.32 7.68 -9 7 C-8.67 6.67 -8.34 6.34 -8 6 Z " fill="#EAEAEA" transform="translate(630,784)"/>
<path d="M0 0 C0.66 0.33 1.32 0.66 2 1 C0.68 2.32 -0.64 3.64 -2 5 C-2 2 -2 2 0 0 Z M-3 4 C-3 4.66 -3 5.32 -3 6 C-3.66 6 -4.32 6 -5 6 C-5.33 6.99 -5.66 7.98 -6 9 C-7.32 8.67 -8.64 8.34 -10 8 C-5.25 4 -5.25 4 -3 4 Z " fill="#181818" transform="translate(607,756)"/>
<path d="M0 0 C3.35595828 0.59927826 5.37801226 1.84622436 8 4 C7.67 4.99 7.34 5.98 7 7 C4.0625 5.75 4.0625 5.75 1 4 C0.125 1.8125 0.125 1.8125 0 0 Z " fill="#F6F6F6" transform="translate(470,161)"/>
<path d="M0 0 C0.66 0.33 1.32 0.66 2 1 C1.505 1.598125 1.01 2.19625 0.5 2.8125 C-1.28276418 4.97029994 -1.28276418 4.97029994 -1 8 C-3.97 7.505 -3.97 7.505 -7 7 C-4.66666667 4.66666667 -2.33333333 2.33333333 0 0 Z " fill="#181818" transform="translate(780,822)"/>
<path d="M0 0 C2.475 0.99 2.475 0.99 5 2 C2.01353231 3.99097846 -0.59687262 4.94124926 -4 6 C-2.84826645 3.53199953 -1.95216435 1.95216435 0 0 Z " fill="#282828" transform="translate(363,558)"/>
<path d="M0 0 C0.66 0.33 1.32 0.66 2 1 C1 4 1 4 -2 6 C-4.1875 5.625 -4.1875 5.625 -6 5 C-2.25 1.125 -2.25 1.125 0 0 Z " fill="#E8E8E8" transform="translate(615,1104)"/>
<path d="M0 0 C0.66 0.66 1.32 1.32 2 2 C-0.64 4.64 -3.28 7.28 -6 10 C-6 6.41087588 -5.33563446 5.89142971 -3 3.3125 C-2.443125 2.68988281 -1.88625 2.06726563 -1.3125 1.42578125 C-0.879375 0.95527344 -0.44625 0.48476563 0 0 Z " fill="#202020" transform="translate(441,903)"/>
<path d="M0 0 C3 1 3 1 6 4 C2.37 4 -1.26 4 -5 4 C-2.6875 1.9375 -2.6875 1.9375 0 0 Z " fill="#232323" transform="translate(763,834)"/>
<path d="M0 0 C1.5625 1.25 1.5625 1.25 3 3 C2.6875 5.1875 2.6875 5.1875 2 7 C0.35 5.68 -1.3 4.36 -3 3 C-2.01 2.01 -1.02 1.02 0 0 Z " fill="#191919" transform="translate(535,712)"/>
<path d="M0 0 C-0.99 1.485 -0.99 1.485 -2 3 C-3.9453125 3.29296875 -3.9453125 3.29296875 -6.125 3.1875 C-7.40375 3.125625 -8.6825 3.06375 -10 3 C-4.37755102 -1.45918367 -4.37755102 -1.45918367 0 0 Z " fill="#181818" transform="translate(615,689)"/>
<path d="M0 0 C2.5 2.3125 2.5 2.3125 5 5 C5 5.99 5 6.98 5 8 C3.02 7.01 1.04 6.02 -1 5 C-0.67 3.35 -0.34 1.7 0 0 Z " fill="#E4E4E4" transform="translate(491,677)"/>
<path d="M0 0 C-1.4638611 4.39158329 -3.97831338 4.87947433 -8 7 C-6.47663111 3.31852519 -4.31953005 0 0 0 Z " fill="#121212" transform="translate(540,443)"/>
<path d="M0 0 C0 0.66 0 1.32 0 2 C-4.455 3.485 -4.455 3.485 -9 5 C-9 4.34 -9 3.68 -9 3 C-3.375 0 -3.375 0 0 0 Z " fill="#EEEEEE" transform="translate(666,666)"/>
<path d="M0 0 C3.37503669 1.1858237 5.64722731 2.27573689 8 5 C6.68 4.67 5.36 4.34 4 4 C3.67 4.66 3.34 5.32 3 6 C2.01 4.02 1.02 2.04 0 0 Z " fill="#E4E4E4" transform="translate(968,629)"/>
<path d="M0 0 C0.66 0.66 1.32 1.32 2 2 C1.01 2 0.02 2 -1 2 C-0.67 1.34 -0.34 0.68 0 0 Z M-3 2 C-2.34 2.33 -1.68 2.66 -1 3 C-1.99 3.99 -2.98 4.98 -4 6 C-4.66 5.67 -5.32 5.34 -6 5 C-5.01 4.01 -4.02 3.02 -3 2 Z " fill="#1A1A1A" transform="translate(941,711)"/>
</svg>
